<svg data-v-423bf9ae="" xmlns="http://www.w3.org/2000/svg" viewBox="0 0 737 90" class="iconLeft"><g data-v-423bf9ae="" id="b17aae49-c5fe-44ce-b8e1-ade277931dd2" fill="black" transform="matrix(3.740648165544534,0,0,3.740648165544534,79.93209896393489,11.633415027117799)"><path d="M1.16 14.35L4.91 14.35C6.57 14.35 7.67 13.19 7.67 11.59C7.67 10.25 6.92 9.55 5.78 9.28L5.78 9.21C6.73 8.93 7.34 8.27 7.34 7.14C7.34 5.57 6.30 4.58 4.54 4.58L1.16 4.58ZM2.70 13.15L2.70 9.93L4.44 9.93C5.47 9.93 6.06 10.33 6.06 11.28L6.06 11.79C6.06 12.73 5.47 13.15 4.44 13.15ZM2.70 8.78L2.70 5.78L4.21 5.78C5.19 5.78 5.73 6.15 5.73 7.03L5.73 7.53C5.73 8.41 5.19 8.78 4.21 8.78ZM16.53 14.35L13.68 4.58L11.54 4.58L8.68 14.35L10.28 14.35L11.02 11.75L14.13 11.75L14.87 14.35ZM13.83 10.44L11.31 10.44L12.52 6.16L12.63 6.16ZM29.68 14.52C31.57 14.52 32.44 13.43 32.89 12.10L31.47 11.62C31.18 12.52 30.77 13.22 29.67 13.22C28.28 13.22 27.68 12.08 27.68 10.29L27.68 8.64C27.68 6.85 28.28 5.71 29.67 5.71C30.77 5.71 31.18 6.41 31.47 7.31L32.89 6.83C32.44 5.50 31.57 4.41 29.68 4.41C27.20 4.41 26.01 6.23 26.01 9.46C26.01 12.70 27.20 14.52 29.68 14.52ZM39.42 14.35L40.99 14.35L40.99 4.58L39.42 4.58L39.42 8.74L36.18 8.74L36.18 4.58L34.61 4.58L34.61 14.35L36.18 14.35L36.18 10.05L39.42 10.05ZM46.05 3.86L46.98 3.42L45.71 0.90L44.39 1.54ZM50.13 14.35L47.28 4.58L45.14 4.58L42.28 14.35L43.88 14.35L44.62 11.75L47.73 11.75L48.47 14.35ZM47.43 10.44L44.91 10.44L46.12 6.16L46.23 6.16ZM55.78 14.35L57.79 14.35L57.79 4.58L56.42 4.58L56.42 12.10L56.29 12.10L53.42 4.58L51.41 4.58L51.41 14.35L52.78 14.35L52.78 6.83L52.91 6.83ZM64.82 14.35L66.25 14.35L66.25 9.35L62.93 9.35L62.93 10.53L64.82 10.53L64.82 11.41C64.82 12.47 64.19 13.23 63.06 13.23C61.63 13.23 61.12 11.98 61.12 10.19L61.12 8.64C61.12 6.85 61.70 5.71 63.06 5.71C64.15 5.71 64.54 6.45 64.83 7.31L66.25 6.83C65.84 5.52 64.96 4.41 63.04 4.41C60.62 4.41 59.46 6.22 59.46 9.53C59.46 12.70 60.49 14.52 62.52 14.52C63.81 14.52 64.40 13.79 64.72 13.01L64.82 13.01ZM83.13 14.35L83.13 13.03L78.68 13.03L78.68 4.58L77.11 4.58L77.11 14.35ZM90.01 1.54L88.69 0.90L87.42 3.42L88.35 3.86ZM91.28 14.35L91.28 13.16L88.98 13.16L88.98 5.77L91.28 5.77L91.28 4.58L85.12 4.58L85.12 5.77L87.42 5.77L87.42 13.16L85.12 13.16L85.12 14.35ZM97.78 14.35L99.79 14.35L99.79 4.58L98.42 4.58L98.42 12.10L98.29 12.10L95.42 4.58L93.41 4.58L93.41 14.35L94.78 14.35L94.78 6.83L94.91 6.83ZM106.62 14.35L108.19 14.35L108.19 4.58L106.62 4.58L106.62 8.74L103.38 8.74L103.38 4.58L101.81 4.58L101.81 14.35L103.38 14.35L103.38 10.05L106.62 10.05ZM122.98 14.35L124.99 14.35L124.99 4.58L123.62 4.58L123.62 12.10L123.49 12.10L120.62 4.58L118.61 4.58L118.61 14.35L119.98 14.35L119.98 6.83L120.11 6.83ZM132.02 14.35L133.45 14.35L133.45 9.35L130.13 9.35L130.13 10.53L132.02 10.53L132.02 11.41C132.02 12.47 131.39 13.23 130.26 13.23C128.83 13.23 128.32 11.98 128.32 10.19L128.32 8.64C128.32 6.85 128.90 5.71 130.26 5.71C131.35 5.71 131.74 6.45 132.03 7.31L133.45 6.83C133.04 5.52 132.16 4.41 130.24 4.41C127.82 4.41 126.66 6.22 126.66 9.53C126.66 12.70 127.69 14.52 129.72 14.52C131.01 14.52 131.60 13.79 131.92 13.01L132.02 13.01ZM138.60 16.94C139.29 16.94 139.54 16.62 139.54 16.20L139.54 15.93C139.54 15.51 139.29 15.19 138.60 15.19C137.91 15.19 137.66 15.51 137.66 15.93L137.66 16.20C137.66 16.62 137.91 16.94 138.60 16.94ZM135.37 4.58L135.37 10.30C135.37 13.10 135.87 14.52 138.60 14.52C141.33 14.52 141.83 13.10 141.83 10.30L141.83 5.50C142.60 5.50 142.80 5.01 142.80 4.42L142.80 3.00L141.50 3.00L141.50 4.58L140.27 4.58L140.27 10.58C140.27 12.19 140.18 13.22 138.60 13.22C137.02 13.22 136.93 12.19 136.93 10.58L136.93 4.58ZM158.73 14.35L158.73 13.03L154.28 13.03L154.28 4.58L152.71 4.58L152.71 14.35ZM163.03 1.13L161.35 3.23L162.12 3.82L163.79 2.20L165.44 3.82L166.25 3.23L164.57 1.13ZM167.73 14.35L164.88 4.58L162.74 4.58L159.88 14.35L161.48 14.35L162.22 11.75L165.33 11.75L166.07 14.35ZM165.03 10.44L162.51 10.44L163.72 6.16L163.83 6.16ZM174.23 14.35L175.62 14.35L175.62 4.58L173.81 4.58L172.30 8.46L172.20 8.46L170.70 4.58L168.78 4.58L168.78 14.35L170.17 14.35L170.17 9.67L170.13 6.73L170.24 6.73L172.20 11.76L174.16 6.73L174.27 6.73L174.23 9.67Z"></path></g><g data-v-423bf9ae="" id="101b9716-70c8-470c-ad53-bb066bded787" transform="matrix(2.8125,0,0,2.8125,-12.426001459360123,0)" stroke="none" fill="black"><path d="M27.377 11.377 16 0 4.623 11.377 16 22.753zM16 6.026l5.35 5.35L16 16.727l-5.35-5.35zM27.426 14.969l-5.664 5.664V32h5.664zM10.238 20.633l-5.664-5.664V32h5.664z"></path></g></svg>