<svg data-v-423bf9ae="" xmlns="http://www.w3.org/2000/svg" viewBox="0 0 611.2311738322405 60" class="font"><g data-v-423bf9ae="" id="b301e856-c35e-491e-9a70-8702f6b8cd15" fill="black" transform="matrix(3.3426182423278368,0,0,3.3426182423278368,-3.877434704593611,3.3760446312920003)"><path d="M1.16 14.35L4.91 14.35C6.57 14.35 7.67 13.19 7.67 11.59C7.67 10.25 6.92 9.55 5.78 9.28L5.78 9.21C6.73 8.93 7.34 8.27 7.34 7.14C7.34 5.57 6.30 4.58 4.54 4.58L1.16 4.58ZM2.70 13.15L2.70 9.93L4.44 9.93C5.47 9.93 6.06 10.33 6.06 11.28L6.06 11.79C6.06 12.73 5.47 13.15 4.44 13.15ZM2.70 8.78L2.70 5.78L4.21 5.78C5.19 5.78 5.73 6.15 5.73 7.03L5.73 7.53C5.73 8.41 5.19 8.78 4.21 8.78ZM12.60 14.52C15.08 14.52 16.18 12.66 16.18 9.46C16.18 6.27 15.08 4.41 12.60 4.41C10.12 4.41 9.02 6.27 9.02 9.46C9.02 12.66 10.12 14.52 12.60 14.52ZM12.60 13.22C11.20 13.22 10.68 12.08 10.68 10.29L10.68 8.64C10.68 6.85 11.20 5.71 12.60 5.71C14 5.71 14.52 6.85 14.52 8.64L14.52 10.28C14.52 12.08 14 13.22 12.60 13.22ZM16.52-0.39L15.27-1.01L14 1.51L14.87 1.93ZM11.91 1.30L10.18 3.33L10.91 3.95L12.59 2.38L14.27 3.95L15.02 3.33L13.29 1.30ZM22.18 14.35L24.19 14.35L24.19 4.58L22.82 4.58L22.82 12.10L22.69 12.10L19.82 4.58L17.81 4.58L17.81 14.35L19.18 14.35L19.18 6.83L19.31 6.83ZM38.08 14.52C39.97 14.52 40.84 13.43 41.29 12.10L39.87 11.62C39.58 12.52 39.17 13.22 38.07 13.22C36.68 13.22 36.08 12.08 36.08 10.29L36.08 8.64C36.08 6.85 36.68 5.71 38.07 5.71C39.17 5.71 39.58 6.41 39.87 7.31L41.29 6.83C40.84 5.50 39.97 4.41 38.08 4.41C35.60 4.41 34.41 6.23 34.41 9.46C34.41 12.70 35.60 14.52 38.08 14.52ZM47.82 14.35L49.39 14.35L49.39 4.58L47.82 4.58L47.82 8.74L44.58 8.74L44.58 4.58L43.01 4.58L43.01 14.35L44.58 14.35L44.58 10.05L47.82 10.05ZM54.45 3.86L55.38 3.42L54.11 0.90L52.79 1.54ZM58.53 14.35L55.68 4.58L53.54 4.58L50.68 14.35L52.28 14.35L53.02 11.75L56.13 11.75L56.87 14.35ZM55.83 10.44L53.31 10.44L54.52 6.16L54.63 6.16ZM64.18 14.35L66.19 14.35L66.19 4.58L64.82 4.58L64.82 12.10L64.69 12.10L61.82 4.58L59.81 4.58L59.81 14.35L61.18 14.35L61.18 6.83L61.31 6.83ZM73.22 14.35L74.65 14.35L74.65 9.35L71.33 9.35L71.33 10.53L73.22 10.53L73.22 11.41C73.22 12.47 72.59 13.23 71.46 13.23C70.03 13.23 69.52 11.98 69.52 10.19L69.52 8.64C69.52 6.85 70.10 5.71 71.46 5.71C72.55 5.71 72.94 6.45 73.23 7.31L74.65 6.83C74.24 5.52 73.36 4.41 71.44 4.41C69.02 4.41 67.86 6.22 67.86 9.53C67.86 12.70 68.89 14.52 70.92 14.52C72.21 14.52 72.80 13.79 73.12 13.01L73.22 13.01ZM91.53 14.35L91.53 13.03L87.08 13.03L87.08 4.58L85.51 4.58L85.51 14.35ZM98.41 1.54L97.09 0.90L95.82 3.42L96.75 3.86ZM99.68 14.35L99.68 13.16L97.38 13.16L97.38 5.77L99.68 5.77L99.68 4.58L93.52 4.58L93.52 5.77L95.82 5.77L95.82 13.16L93.52 13.16L93.52 14.35ZM106.18 14.35L108.19 14.35L108.19 4.58L106.82 4.58L106.82 12.10L106.69 12.10L103.82 4.58L101.81 4.58L101.81 14.35L103.18 14.35L103.18 6.83L103.31 6.83ZM115.02 14.35L116.59 14.35L116.59 4.58L115.02 4.58L115.02 8.74L111.78 8.74L111.78 4.58L110.21 4.58L110.21 14.35L111.78 14.35L111.78 10.05L115.02 10.05ZM131.38 14.35L133.39 14.35L133.39 4.58L132.02 4.58L132.02 12.10L131.89 12.10L129.02 4.58L127.01 4.58L127.01 14.35L128.38 14.35L128.38 6.83L128.51 6.83ZM140.42 14.35L141.85 14.35L141.85 9.35L138.53 9.35L138.53 10.53L140.42 10.53L140.42 11.41C140.42 12.47 139.79 13.23 138.66 13.23C137.23 13.23 136.72 11.98 136.72 10.19L136.72 8.64C136.72 6.85 137.30 5.71 138.66 5.71C139.75 5.71 140.14 6.45 140.43 7.31L141.85 6.83C141.44 5.52 140.56 4.41 138.64 4.41C136.22 4.41 135.06 6.22 135.06 9.53C135.06 12.70 136.09 14.52 138.12 14.52C139.41 14.52 140.00 13.79 140.32 13.01L140.42 13.01ZM147.00 16.94C147.69 16.94 147.94 16.62 147.94 16.20L147.94 15.93C147.94 15.51 147.69 15.19 147.00 15.19C146.31 15.19 146.06 15.51 146.06 15.93L146.06 16.20C146.06 16.62 146.31 16.94 147.00 16.94ZM143.77 4.58L143.77 10.30C143.77 13.10 144.27 14.52 147.00 14.52C149.73 14.52 150.23 13.10 150.23 10.30L150.23 5.50C151.00 5.50 151.20 5.01 151.20 4.42L151.20 3.00L149.90 3.00L149.90 4.58L148.67 4.58L148.67 10.58C148.67 12.19 148.58 13.22 147.00 13.22C145.42 13.22 145.33 12.19 145.33 10.58L145.33 4.58ZM167.13 14.35L167.13 13.03L162.68 13.03L162.68 4.58L161.11 4.58L161.11 14.35ZM171.43 1.13L169.75 3.23L170.52 3.82L172.19 2.20L173.84 3.82L174.65 3.23L172.97 1.13ZM176.13 14.35L173.28 4.58L171.14 4.58L168.28 14.35L169.88 14.35L170.62 11.75L173.73 11.75L174.47 14.35ZM173.43 10.44L170.91 10.44L172.12 6.16L172.23 6.16ZM182.63 14.35L184.02 14.35L184.02 4.58L182.21 4.58L180.70 8.46L180.60 8.46L179.10 4.58L177.18 4.58L177.18 14.35L178.57 14.35L178.57 9.67L178.53 6.73L178.64 6.73L180.60 11.76L182.56 6.73L182.67 6.73L182.63 9.67Z"></path></g></svg>